<svg xmlns="http://www.w3.org/2000/svg" xmlns:xlink="http://www.w3.org/1999/xlink" width="158" height="160" version="1.1" viewBox="0 0 158 160"><title>Group</title><desc>Created with Sketch.</desc><defs><polygon id="path-1" points="0 180 180 180 180 0 0 0"/></defs><g id="Page-1" fill="none" fill-rule="evenodd" stroke="none" stroke-width="1"><g id="Group" transform="translate(-11.000000, -11.000000)"><g id="C1_OSLogo_CloudCustodian_Icon_RGB_BW"><g id="g3553" transform="translate(90.000000, 90.000000) scale(-1, 1) rotate(-180.000000) translate(-90.000000, -90.000000)"><g id="g3555" fill="#231F20" fill-rule="nonzero" transform="translate(49.964625, 64.213375)"><polygon id="path3557" points="16.25 26.25 1.214 17.57 1.214 .209 16.25 8.89"/></g><g id="g3559" fill="#231F20" fill-rule="nonzero" transform="translate(73.958375, 86.815000)"><polygon id="path3561" points="16.25 17.5 1.214 8.82 16.25 .14 31.286 8.819"/></g><g id="g3563" fill="#231F20" fill-rule="nonzero" transform="translate(91.978000, 100.669250)"><polygon id="path3565" points="16.25 17.5 1.216 26.18 1.216 8.818 16.25 .138"/></g><g id="g3567" fill="#231F20" fill-rule="nonzero" transform="translate(72.186375, 64.352625)"><polygon id="path3569" points="0 8.75 15.036 .07 15.036 17.43 0 26.111"/></g><g id="g3571" fill="#231F20" fill-rule="nonzero" transform="translate(49.964625, 88.169000)"><polygon id="path3573" points="16.25 30 1.214 38.68 1.214 .509 16.25 9.19"/></g><g id="g3575" fill="#231F20" fill-rule="nonzero" transform="translate(70.972000, 100.599500)"><polygon id="path3577" points="16.25 26.25 1.214 17.57 1.214 .207 16.25 8.887"/></g><g id="g3579" fill="#231F20" fill-rule="nonzero" transform="translate(54.165000, 39.251000)"><polygon id="path3581" points="0 20 33.057 .912 33.057 18.276 15.036 28.68"/></g><g id="g3583" fill="#231F20" fill-rule="nonzero" transform="translate(112.985500, 64.283125)"><polygon id="path3585" points="16.25 17.5 1.214 26.181 1.214 8.82 16.25 .138"/></g><g id="g3587" fill="#231F20" fill-rule="nonzero" transform="translate(93.193875, 64.419125)"><polygon id="path3589" points="0 0 15.034 8.684 15.034 26.043 0 17.364"/></g><g id="g3591"><g id="g3593-Clipped"><mask id="mask-2" fill="#fff"><use xlink:href="#path-1"/></mask><g id="g3593" mask="url(#mask-2)"><g transform="translate(10.000000, 10.000000)"><g id="g3599" transform="translate(0.207250, 0.025000)"><path id="path3601" fill="#231F20" fill-rule="nonzero" d="M125,47.5 L80.00125,21.52 L35,47.50125 L35,127.16625 L58.99375,113.315 L80.00125,125.4425 L101.00625,113.315 L125,127.16625 L125,47.5 Z M79.7925,158.725 C36.3,158.725 1.0425,123.4675 1.0425,79.975 C1.0425,36.4825 36.3,1.225 79.7925,1.225 C123.285,1.225 158.5425,36.4825 158.5425,79.975 C158.5425,123.4675 123.285,158.725 79.7925,158.725 L79.7925,158.725 Z"/></g><g id="g3603" transform="translate(102.985500, 78.099000)"><polygon id="path3605" fill="#231F20" fill-rule="nonzero" points="16.25 38.75 1.214 30.07 1.214 9.26 16.25 .58"/></g><g id="g3607" transform="translate(83.193875, 30.024750)"><polygon id="path3609" fill="#231F20" fill-rule="nonzero" points="0 17.5 0 .139 33.056 19.225 18.02 27.906"/></g></g></g></g></g></g></g><text id="SM" fill="#241F20" font-family="Optimist-Regular, Optimist" font-size="8" font-weight="normal"><tspan x="128.856" y="170">SM</tspan></text></g></g></svg>